<svg width="20" height="20" viewBox="0 0 20 20" fill="none" xmlns="http://www.w3.org/2000/svg">
<path d="M8.47503 4.16664C8.59952 4.16622 8.72253 4.19369 8.83501 4.24705C8.9475 4.30041 9.04659 4.37829 9.12503 4.47497L13.15 9.47497C13.2726 9.62408 13.3396 9.81112 13.3396 10.0041C13.3396 10.1972 13.2726 10.3842 13.15 10.5333L8.98336 15.5333C8.84191 15.7035 8.63865 15.8105 8.4183 15.8308C8.19794 15.8511 7.97854 15.7831 7.80836 15.6416C7.63818 15.5002 7.53116 15.2969 7.51084 15.0766C7.49053 14.8562 7.55858 14.6368 7.70003 14.4666L11.425 9.99997L7.82503 5.53331C7.72313 5.41099 7.65839 5.26203 7.63849 5.10408C7.61859 4.94612 7.64436 4.78577 7.71274 4.64199C7.78112 4.49822 7.88925 4.37704 8.02434 4.2928C8.15944 4.20856 8.31583 4.16478 8.47503 4.16664Z" fill="#BDBDBD"/>
</svg>
