<svg width="20" height="20" viewBox="0 0 20 20" fill="none" xmlns="http://www.w3.org/2000/svg">
<path d="M15.4138 7.49297L16.8805 6.0369C18.7527 7.10917 19.9992 8.59095 19.9992 10.233C19.9992 13.5111 15.0591 16.1611 10.0352 16.168C9.01291 16.1679 7.99338 16.0619 6.99325 15.8515L8.73395 14.1244C9.15842 14.1679 9.59285 14.1907 10.0323 14.1897H10.0342C9.62074 14.1897 9.22219 14.1274 8.84754 14.0116L10.8214 12.0511C11.2897 11.8513 11.6653 11.4783 11.8676 11.0134L13.8405 9.05388C14.0262 9.64454 14.0698 10.2702 13.9678 10.8806C13.8658 11.4911 13.621 12.0692 13.2531 12.5687C12.8852 13.0682 12.4044 13.475 11.8493 13.7565C11.2943 14.038 10.6804 14.1864 10.0572 14.1897C14.2869 14.1748 18.0064 12.0293 18.0064 10.233C18.0064 9.30019 16.9881 8.26848 15.4138 7.49297ZM6.14532 11.0985C6.01474 10.5202 6.01666 9.92025 6.15096 9.34282C6.28526 8.7654 6.54849 8.2253 6.92122 7.76241C7.29395 7.29951 7.76666 6.92565 8.30444 6.66843C8.84222 6.4112 9.43133 6.27719 10.0283 6.27628C5.82547 6.26145 2.06408 8.43071 2.06408 10.233C2.06408 11.1193 2.96482 12.0897 4.38269 12.8484L2.92995 14.2886C1.2012 13.2282 0.0712891 11.8008 0.0712891 10.233C0.0712891 6.95486 5.03733 4.28112 10.0352 4.29794C10.946 4.3009 11.8557 4.39092 12.7345 4.5571L10.9639 6.31387C10.6749 6.29211 10.382 6.27925 10.0871 6.27628C10.368 6.28024 10.6421 6.31288 10.9071 6.37124L6.14432 11.0985H6.14532ZM19.0945 1.04059C19.2813 1.22608 19.3862 1.47764 19.3862 1.73993C19.3862 2.00223 19.2813 2.25378 19.0945 2.43928L2.18564 19.2256C2.09379 19.3201 1.9839 19.3955 1.86237 19.4475C1.74085 19.4994 1.61012 19.5268 1.47782 19.528C1.34552 19.5292 1.2143 19.5043 1.09181 19.4546C0.969326 19.405 0.858026 19.3316 0.764406 19.2388C0.670786 19.146 0.596723 19.0356 0.546537 18.9141C0.49635 18.7925 0.471047 18.6623 0.472102 18.531C0.473157 18.3996 0.50055 18.2698 0.552682 18.1491C0.604814 18.0284 0.680642 17.9192 0.775741 17.8279L17.6846 1.04158C17.7771 0.949606 17.887 0.876646 18.008 0.826867C18.1289 0.777087 18.2586 0.751465 18.3895 0.751465C18.5205 0.751465 18.6501 0.777087 18.7711 0.826867C18.892 0.876646 19.0019 0.949606 19.0945 1.04158V1.04059Z" fill="#7C7C7C"/>
</svg>
