<svg width="32" height="33" viewBox="0 0 32 33" fill="none" xmlns="http://www.w3.org/2000/svg">
<path opacity="0.1" fill-rule="evenodd" clip-rule="evenodd" d="M0 16.5C0 7.66344 7.16344 0.5 16 0.5C24.8366 0.5 32 7.66344 32 16.5C32 25.3366 24.8366 32.5 16 32.5C7.16344 32.5 0 25.3366 0 16.5Z" fill="white"/>
<path fill-rule="evenodd" clip-rule="evenodd" d="M16.0008 7.96667C13.6833 7.96667 13.3924 7.97681 12.4822 8.01823C11.5737 8.05983 10.9536 8.20366 10.4111 8.41468C9.84981 8.63264 9.37372 8.9242 8.8994 9.39869C8.42473 9.87301 8.13317 10.3491 7.9145 10.9102C7.70294 11.4529 7.55894 12.0732 7.51805 12.9813C7.47734 13.8915 7.46667 14.1826 7.46667 16.5001C7.46667 18.8176 7.47699 19.1076 7.51823 20.0178C7.56001 20.9263 7.70383 21.5464 7.91468 22.089C8.13282 22.6502 8.42437 23.1263 8.89887 23.6006C9.37301 24.0753 9.8491 24.3676 10.41 24.5855C10.9529 24.7965 11.5732 24.9404 12.4815 24.982C13.3917 25.0234 13.6824 25.0335 15.9997 25.0335C18.3175 25.0335 18.6074 25.0234 19.5176 24.982C20.4261 24.9404 21.0469 24.7965 21.5898 24.5855C22.1509 24.3676 22.6263 24.0753 23.1004 23.6006C23.5751 23.1263 23.8667 22.6502 24.0853 22.0891C24.2951 21.5464 24.4391 20.9261 24.4818 20.018C24.5227 19.1078 24.5333 18.8176 24.5333 16.5001C24.5333 14.1826 24.5227 13.8917 24.4818 12.9815C24.4391 12.073 24.2951 11.4529 24.0853 10.9103C23.8667 10.3491 23.5751 9.87301 23.1004 9.39869C22.6258 8.92402 22.1511 8.63246 21.5893 8.41468C21.0453 8.20366 20.4249 8.05983 19.5164 8.01823C18.6062 7.97681 18.3164 7.96667 15.9981 7.96667H16.0008ZM15.2353 9.50444C15.4625 9.50409 15.716 9.50444 16.0008 9.50444C18.2792 9.50444 18.5492 9.51262 19.449 9.55351C20.281 9.59156 20.7326 9.73058 21.0334 9.84738C21.4316 10.002 21.7155 10.1869 22.014 10.4856C22.3127 10.7843 22.4976 11.0687 22.6526 11.467C22.7694 11.7674 22.9086 12.219 22.9464 13.051C22.9873 13.9505 22.9962 14.2208 22.9962 16.4981C22.9962 18.7755 22.9873 19.0457 22.9464 19.9453C22.9084 20.7773 22.7694 21.2288 22.6526 21.5293C22.4979 21.9275 22.3127 22.2111 22.014 22.5096C21.7153 22.8082 21.4318 22.9931 21.0334 23.1478C20.7329 23.2651 20.281 23.4038 19.449 23.4418C18.5494 23.4827 18.2792 23.4916 16.0008 23.4916C13.7222 23.4916 13.4521 23.4827 12.5526 23.4418C11.7205 23.4034 11.269 23.2644 10.968 23.1476C10.5698 22.9929 10.2853 22.8081 9.98666 22.5094C9.68799 22.2107 9.5031 21.927 9.34808 21.5286C9.23128 21.2281 9.09208 20.7766 9.05421 19.9446C9.01332 19.045 9.00514 18.7748 9.00514 16.496C9.00514 14.2172 9.01332 13.9484 9.05421 13.0488C9.09226 12.2168 9.23128 11.7653 9.34808 11.4645C9.50275 11.0662 9.68799 10.7818 9.98666 10.4831C10.2853 10.1845 10.5698 9.99956 10.968 9.84454C11.2688 9.7272 11.7205 9.58853 12.5526 9.55031C13.3398 9.51476 13.6448 9.50409 15.2353 9.50231V9.50444ZM20.5558 10.9214C19.9905 10.9214 19.5318 11.3795 19.5318 11.945C19.5318 12.5103 19.9905 12.969 20.5558 12.969C21.1212 12.969 21.5799 12.5103 21.5799 11.945C21.5799 11.3797 21.1212 10.9214 20.5558 10.9214ZM16.0008 12.1178C13.5807 12.1178 11.6186 14.08 11.6186 16.5001C11.6186 18.9202 13.5807 20.8815 16.0008 20.8815C18.4209 20.8815 20.3824 18.9202 20.3824 16.5001C20.3824 14.08 18.4209 12.1178 16.0008 12.1178ZM16.0008 13.6556C17.5717 13.6556 18.8453 14.929 18.8453 16.5001C18.8453 18.0709 17.5717 19.3445 16.0008 19.3445C14.4298 19.3445 13.1563 18.0709 13.1563 16.5001C13.1563 14.929 14.4298 13.6556 16.0008 13.6556Z" fill="white"/>
</svg>
