<svg width="32" height="33" viewBox="0 0 32 33" fill="none" xmlns="http://www.w3.org/2000/svg">
<path opacity="0.1" fill-rule="evenodd" clip-rule="evenodd" d="M0 16.5C0 7.66344 7.16344 0.5 16 0.5C24.8366 0.5 32 7.66344 32 16.5C32 25.3366 24.8366 32.5 16 32.5C7.16344 32.5 0 25.3366 0 16.5Z" fill="white"/>
<path d="M21.808 10.74L8.512 16.02C8.08 16.164 8.128 16.788 8.56 16.932L11.92 17.988L13.264 22.2121C13.36 22.5481 13.792 22.644 14.032 22.404L16 20.58L19.744 23.3161C20.032 23.508 20.416 23.364 20.512 23.028L23.104 11.892C23.248 11.076 22.528 10.452 21.808 10.74ZM14.032 18.804L13.6 21.3L12.64 17.844L22 11.7L14.032 18.804Z" fill="white"/>
</svg>
