<svg width="32" height="33" viewBox="0 0 32 33" fill="none" xmlns="http://www.w3.org/2000/svg">
<path opacity="0.1" fill-rule="evenodd" clip-rule="evenodd" d="M0 16.5C0 7.66344 7.16344 0.5 16 0.5C24.8366 0.5 32 7.66344 32 16.5C32 25.3366 24.8366 32.5 16 32.5C7.16344 32.5 0 25.3366 0 16.5Z" fill="white"/>
<path fill-rule="evenodd" clip-rule="evenodd" d="M22.6677 10.9995C23.4021 11.201 23.9804 11.7948 24.1767 12.5488C24.5333 13.9153 24.5333 16.7666 24.5333 16.7666C24.5333 16.7666 24.5333 19.6178 24.1767 20.9845C23.9804 21.7385 23.4021 22.3322 22.6677 22.5338C21.3369 22.9 16 22.9 16 22.9C16 22.9 10.6631 22.9 9.33218 22.5338C8.59783 22.3322 8.0195 21.7385 7.82323 20.9845C7.46667 19.6178 7.46667 16.7666 7.46667 16.7666C7.46667 16.7666 7.46667 13.9153 7.82323 12.5488C8.0195 11.7948 8.59783 11.201 9.33218 10.9995C10.6631 10.6333 16 10.6333 16 10.6333C16 10.6333 21.3369 10.6333 22.6677 10.9995ZM14.4 14.3666V19.6999L18.6667 17.0333L14.4 14.3666Z" fill="white"/>
</svg>
